<svg id="Layer_1" enable-background="new 0 0 512.036 512.036" height="512" viewBox="0 0 512.036 512.036" width="512" xmlns="http://www.w3.org/2000/svg"><g><path d="m92.745 41.816c94.267-42.374 232.276-42.374 326.543-.001 11.081 4.981 19.836 13.957 24.626 25.122 42.805 99.774 42.804 246.427-.002 346.2-4.789 11.162-13.542 20.137-24.621 25.117-94.268 42.375-232.281 42.375-326.549 0-11.079-4.98-19.832-13.954-24.621-25.117-42.805-99.773-42.805-246.427.001-346.201 4.789-11.164 13.544-20.139 24.623-25.12z" fill="#fff2a0"/><path d="m321.018 452.036c-3.71 28.139-31.396 50-65 50-33.604 0-61.29-21.861-65-50" fill="#fff2a0"/><g><path d="m406.018 166.036v40c0 33.137-26.863 60-60 60-33.137 0-60-26.863-60-60v-40c33.137-13.334 86.863-13.334 120 0z" fill="#ccf5fc"/><path d="m226.018 166.036v40c0 33.137-26.863 60-60 60-33.137 0-60-26.863-60-60v-40c33.137-13.334 86.863-13.334 120 0z" fill="#ccf5fc"/><g fill="#ffa96b"><path d="m453.104 62.995c-5.807-13.536-16.36-24.297-29.716-30.3-96.98-43.593-237.762-43.593-334.742.001-13.354 6.003-23.907 16.763-29.713 30.297-44.013 102.586-44.013 251.502 0 354.087 5.806 13.533 16.356 24.292 29.711 30.295 29.423 13.226 63.019 22.598 99.867 27.888 12.435 21.962 38.177 36.772 67.507 36.772s55.072-14.81 67.507-36.772c36.848-5.29 70.443-14.662 99.868-27.889 13.354-6.003 23.904-16.762 29.71-30.295 44.012-102.583 44.012-251.497.001-354.084zm-18.38 346.199c-3.825 8.915-10.762 15.997-19.531 19.939-25.013 11.243-53.341 19.549-84.348 24.756.026-.183.063-.363.087-.547.722-5.476-3.132-10.5-8.607-11.221-5.479-.721-10.499 3.132-11.221 8.607-3.104 23.549-26.787 41.307-55.086 41.307s-51.981-17.758-55.086-41.307c-.721-5.475-5.743-9.328-11.221-8.607-5.476.722-9.329 5.746-8.607 11.221.024.184.061.364.087.547-31.007-5.207-59.334-13.513-84.347-24.756-8.771-3.943-15.707-11.024-19.532-19.939-20.18-47.037-31.294-107.112-31.294-169.158 0-62.045 11.114-122.121 31.295-169.159 3.824-8.917 10.762-15.998 19.532-19.94 44.331-19.927 100.858-30.902 159.172-30.902 58.313 0 114.841 10.974 159.172 30.901 8.771 3.943 15.709 11.025 19.535 19.944 20.181 47.038 31.294 107.112 31.294 169.158s-11.114 122.12-31.294 169.156z"/><path d="m356.018 296.036c-5.522 0-10 4.477-10 10 0 16.542-13.458 30-30 30h-160c-5.522 0-10 4.477-10 10s4.478 10 10 10h160c27.57 0 50-22.43 50-50 0-5.523-4.478-10-10-10z"/><path d="m436.018 186.036h-20v-20c0-4.082-2.48-7.753-6.267-9.277-35.517-14.291-91.025-14.373-126.79-.259-7.114-6.495-16.574-10.463-26.943-10.463s-19.829 3.968-26.943 10.463c-35.765-14.113-91.273-14.031-126.79.259-3.786 1.524-6.267 5.196-6.267 9.277v20h-20c-5.522 0-10 4.477-10 10s4.478 10 10 10h20c0 38.598 31.402 70 70 70s70-31.402 70-70v-20c0-11.028 8.972-20 20-20s20 8.972 20 20v20c0 38.598 31.402 70 70 70s70-31.402 70-70h20c5.522 0 10-4.477 10-10s-4.478-10-10-10zm-220 20c0 27.57-22.43 50-50 50s-50-22.43-50-50v-32.981c28.736-9.26 71.264-9.26 100 0zm180 0c0 27.57-22.43 50-50 50s-50-22.43-50-50v-32.981c28.736-9.26 71.264-9.26 100 0z"/></g></g></g></svg>